<svg width="1440" height="235" viewBox="0 0 1440 235" fill="none" xmlns="http://www.w3.org/2000/svg">
<path d="M1292.2 186.78C1226.84 184.38 1162.46 187.06 1100.85 194.76C1027.26 203.96 945.23 208.12 857.05 207.12L856.99 212.6C865.53 212.7 874.01 212.74 882.43 212.74C961.22 212.74 1034.82 208.53 1101.52 200.19C1162.84 192.53 1226.92 189.87 1291.98 192.25L1439.98 197.68V192.19L1292.18 186.76L1292.2 186.78Z" fill="#04949E"/>
<g opacity="0.64">
<path d="M746.23 208.95C687.67 205.84 626.29 200.9 558.57 193.84C550 192.95 541.42 192.03 532.83 191.12C474.94 184.95 415.08 178.56 355.05 178.56C354.41 178.56 353.78 178.56 353.14 178.56C317 178.65 280.7 180.95 242.16 185.59L241.5 180.14C280.26 175.47 316.77 173.16 353.13 173.07C353.77 173.07 354.41 173.07 355.05 173.07C415.38 173.07 475.37 179.47 533.41 185.66C541.99 186.57 550.56 187.49 559.13 188.38C626.75 195.43 688.04 200.37 746.51 203.47L746.22 208.95H746.23Z" fill="#04949E"/>
</g>
<path d="M21.4 224.4C19.69 224.85 18.68 226.58 19.12 228.28C19.49 229.71 20.78 230.66 22.19 230.66C22.46 230.66 22.73 230.62 23 230.55C24.7 230.11 25.71 228.38 25.27 226.68C24.82 224.97 23.09 223.96 21.4 224.4Z" fill="#04949E"/>
<path d="M53.09 216.3C51.39 216.73 50.36 218.45 50.78 220.15C51.14 221.59 52.43 222.57 53.86 222.57C54.12 222.57 54.38 222.53 54.64 222.47C56.34 222.04 57.37 220.32 56.95 218.62C56.52 216.91 54.8 215.88 53.09 216.3Z" fill="#04949E"/>
<path d="M37.24 220.31C35.54 220.75 34.52 222.47 34.95 224.18C35.31 225.62 36.6 226.57 38.03 226.57C38.28 226.57 38.56 226.54 38.82 226.47C40.52 226.03 41.54 224.3 41.11 222.6C40.67 220.9 38.95 219.88 37.24 220.31Z" fill="#04949E"/>
<path d="M5.58 228.55C3.87 229 2.87 230.74 3.32 232.44C3.69 233.86 4.98 234.8 6.39 234.8C6.65 234.8 6.93 234.76 7.2 234.7C8.9 234.25 9.92 232.51 9.46 230.81C9.01 229.11 7.28 228.09 5.58 228.55Z" fill="#04949E"/>
<path d="M132.83 197.86C131.11 198.21 130.01 199.89 130.37 201.62C130.68 203.12 132 204.15 133.48 204.15C133.7 204.15 133.92 204.13 134.13 204.09C135.85 203.73 136.95 202.05 136.59 200.33C136.23 198.61 134.55 197.51 132.83 197.87V197.86Z" fill="#04949E"/>
<path d="M116.82 201.28C115.1 201.65 114.01 203.35 114.4 205.07C114.72 206.56 116.03 207.57 117.5 207.57C117.73 207.57 117.95 207.54 118.18 207.5C119.9 207.13 120.99 205.43 120.6 203.71C120.23 202 118.54 200.91 116.82 201.29V201.28Z" fill="#04949E"/>
<path d="M68.99 212.37C67.28 212.78 66.24 214.5 66.66 216.21C67.01 217.66 68.31 218.63 69.74 218.63C69.98 218.63 70.24 218.59 70.49 218.54C72.2 218.12 73.24 216.4 72.83 214.7C72.41 212.99 70.69 211.95 68.99 212.37Z" fill="#04949E"/>
<path d="M84.9 208.55C83.19 208.95 82.13 210.67 82.54 212.37C82.89 213.83 84.18 214.82 85.63 214.82C85.87 214.82 86.11 214.78 86.37 214.73C88.08 214.33 89.13 212.61 88.73 210.91C88.33 209.2 86.61 208.14 84.91 208.55H84.9Z" fill="#04949E"/>
<path d="M100.84 204.85C99.13 205.24 98.06 206.95 98.45 208.66C98.79 210.13 100.09 211.14 101.55 211.14C101.79 211.14 102.02 211.11 102.26 211.06C103.97 210.67 105.04 208.96 104.65 207.26C104.27 205.54 102.56 204.47 100.85 204.86L100.84 204.85Z" fill="#04949E"/>
<path d="M954.28 223.29C962.24 223.29 968.67 216.86 968.67 208.92C968.67 200.98 962.23 194.55 954.28 194.55C946.33 194.55 939.88 200.98 939.88 208.92C939.88 216.86 946.33 223.29 954.28 223.29Z" fill="#04949E"/>
<path d="M157.15 200.77C155.02 200.77 153.11 199.26 152.7 197.08C152.23 194.62 153.84 192.24 156.3 191.76C186.11 186.04 213.91 181.65 241.29 178.35C243.79 178.06 246.04 179.83 246.34 182.31C246.64 184.8 244.87 187.06 242.38 187.36C215.21 190.64 187.62 194.99 158.01 200.67C157.72 200.73 157.43 200.75 157.15 200.75V200.77Z" fill="#04949E"/>
<path d="M857.03 213.8H856.98C821.5 213.39 784.22 212.16 746.17 210.15C744 210.03 742.33 208.18 742.44 206.01C742.56 203.84 744.42 202.19 746.58 202.28C784.51 204.29 821.69 205.52 857.06 205.92C859.24 205.94 860.98 207.73 860.96 209.91C860.94 212.07 859.18 213.81 857.02 213.81L857.03 213.8Z" fill="#04949E"/>
<path d="M1126.73 138.58C1124.97 138.49 1123.48 139.83 1123.38 141.59C1123.28 143.34 1124.62 144.84 1126.39 144.93C1126.45 144.93 1126.51 144.93 1126.57 144.93C1128.25 144.93 1129.65 143.61 1129.74 141.92C1129.83 140.17 1128.5 138.67 1126.74 138.57L1126.73 138.58Z" fill="#04949E"/>
<path d="M1159.36 140.2C1157.61 140.13 1156.12 141.48 1156.04 143.23C1155.96 144.99 1157.32 146.47 1159.07 146.55H1159.22C1160.91 146.55 1162.32 145.22 1162.39 143.52C1162.47 141.77 1161.11 140.28 1159.36 140.2Z" fill="#04949E"/>
<path d="M1240.94 142.49C1239.18 142.47 1237.75 143.89 1237.73 145.64C1237.71 147.39 1239.13 148.83 1240.88 148.85H1240.91C1242.65 148.85 1244.07 147.44 1244.09 145.7C1244.09 143.95 1242.69 142.51 1240.94 142.49Z" fill="#04949E"/>
<path d="M1143.04 139.43C1141.29 139.35 1139.79 140.69 1139.71 142.45C1139.62 144.2 1140.97 145.69 1142.72 145.78C1142.77 145.78 1142.82 145.78 1142.87 145.78C1144.56 145.78 1145.97 144.45 1146.05 142.76C1146.14 141.01 1144.79 139.52 1143.04 139.43Z" fill="#04949E"/>
<path d="M1224.63 142.28C1222.88 142.24 1221.42 143.65 1221.4 145.4C1221.37 147.15 1222.77 148.6 1224.52 148.63H1224.57C1226.3 148.63 1227.72 147.24 1227.75 145.51C1227.78 143.75 1226.38 142.3 1224.63 142.28Z" fill="#04949E"/>
<path d="M1191.99 141.47C1190.24 141.42 1188.77 142.8 1188.71 144.55C1188.66 146.3 1190.04 147.77 1191.79 147.83H1191.89C1193.6 147.83 1195.01 146.48 1195.07 144.75C1195.12 143 1193.74 141.53 1191.99 141.47Z" fill="#04949E"/>
<path d="M1110.41 137.67C1108.66 137.56 1107.16 138.91 1107.06 140.66C1106.96 142.41 1108.29 143.91 1110.05 144.01C1110.11 144.01 1110.18 144.01 1110.24 144.01C1111.91 144.01 1113.31 142.7 1113.41 141.01C1113.51 139.26 1112.17 137.76 1110.41 137.66V137.67Z" fill="#04949E"/>
<path d="M1208.31 141.94C1206.55 141.89 1205.09 143.28 1205.05 145.04C1205.01 146.8 1206.39 148.26 1208.15 148.3H1208.23C1209.96 148.3 1211.36 146.93 1211.41 145.2C1211.46 143.44 1210.07 141.98 1208.31 141.94Z" fill="#04949E"/>
<path d="M1094.1 136.7C1092.35 136.6 1090.85 137.93 1090.74 139.69C1090.63 141.43 1091.97 142.94 1093.72 143.05C1093.78 143.05 1093.86 143.05 1093.92 143.05C1095.58 143.05 1096.98 141.74 1097.09 140.06C1097.19 138.31 1095.86 136.8 1094.1 136.69V136.7Z" fill="#04949E"/>
<path d="M996.15 131.04C994.41 130.95 992.91 132.29 992.82 134.06C992.73 135.81 994.08 137.3 995.83 137.39H995.99C997.67 137.39 999.08 136.07 999.16 134.37C999.25 132.62 997.91 131.13 996.15 131.04Z" fill="#04949E"/>
<path d="M963.47 129.47C961.72 129.39 960.23 130.74 960.15 132.49C960.08 134.24 961.43 135.73 963.18 135.81H963.33C965.02 135.81 966.43 134.48 966.51 132.78C966.59 131.03 965.23 129.54 963.48 129.47H963.47Z" fill="#04949E"/>
<path d="M1012.48 131.9C1010.73 131.8 1009.23 133.14 1009.14 134.9C1009.05 136.66 1010.39 138.15 1012.15 138.25H1012.32C1014 138.25 1015.4 136.93 1015.49 135.24C1015.58 133.49 1014.24 131.99 1012.48 131.9Z" fill="#04949E"/>
<path d="M979.81 130.23C978.06 130.15 976.57 131.5 976.49 133.25C976.4 134.99 977.75 136.49 979.51 136.57H979.66C981.35 136.57 982.76 135.25 982.84 133.55C982.92 131.8 981.57 130.31 979.82 130.23H979.81Z" fill="#04949E"/>
<path d="M1061.47 134.7C1059.72 134.59 1058.21 135.93 1058.1 137.68C1057.99 139.43 1059.33 140.94 1061.08 141.05H1061.28C1062.95 141.05 1064.35 139.75 1064.45 138.06C1064.56 136.32 1063.22 134.81 1061.47 134.7Z" fill="#04949E"/>
<path d="M1077.79 135.7C1076.04 135.59 1074.53 136.93 1074.42 138.68C1074.31 140.43 1075.65 141.94 1077.4 142.05C1077.46 142.05 1077.53 142.05 1077.59 142.05C1079.26 142.05 1080.66 140.75 1080.76 139.06C1080.88 137.31 1079.54 135.81 1077.79 135.69V135.7Z" fill="#04949E"/>
<path d="M1045.14 133.72C1043.39 133.62 1041.89 134.96 1041.78 136.71C1041.68 138.46 1043.01 139.97 1044.77 140.07C1044.83 140.07 1044.9 140.07 1044.96 140.07C1046.63 140.07 1048.03 138.76 1048.13 137.07C1048.24 135.32 1046.9 133.81 1045.14 133.71V133.72Z" fill="#04949E"/>
<path d="M1028.81 132.78C1027.06 132.68 1025.56 134.02 1025.46 135.78C1025.36 137.53 1026.7 139.03 1028.46 139.13H1028.64C1030.31 139.13 1031.72 137.82 1031.81 136.13C1031.91 134.38 1030.57 132.88 1028.81 132.78Z" fill="#04949E"/>
<path d="M1322.49 141.21C1320.74 141.28 1319.37 142.77 1319.45 144.52C1319.52 146.24 1320.93 147.57 1322.62 147.57C1322.67 147.57 1322.72 147.57 1322.77 147.57C1324.52 147.5 1325.88 146.02 1325.81 144.26C1325.73 142.51 1324.25 141.15 1322.5 141.22L1322.49 141.21Z" fill="#04949E"/>
<path d="M1436.09 130.98C1434.35 131.23 1433.15 132.84 1433.39 134.59C1433.62 136.17 1434.98 137.31 1436.53 137.31C1436.68 137.31 1436.84 137.31 1436.99 137.27C1438.72 137.02 1439.93 135.41 1439.68 133.67C1439.43 131.93 1437.82 130.73 1436.08 130.97L1436.09 130.98Z" fill="#04949E"/>
<path d="M1419.95 133.18C1418.21 133.4 1416.97 134.99 1417.19 136.73C1417.4 138.34 1418.77 139.51 1420.34 139.51C1420.48 139.51 1420.61 139.51 1420.75 139.48C1422.49 139.26 1423.72 137.67 1423.5 135.93C1423.28 134.19 1421.68 132.96 1419.95 133.18Z" fill="#04949E"/>
<path d="M1403.76 135.1C1402.02 135.29 1400.75 136.86 1400.95 138.61C1401.12 140.24 1402.5 141.43 1404.1 141.43C1404.22 141.43 1404.34 141.43 1404.45 141.41C1406.19 141.21 1407.45 139.64 1407.26 137.9C1407.07 136.16 1405.5 134.9 1403.75 135.09L1403.76 135.1Z" fill="#04949E"/>
<path d="M1257.26 142.57C1255.5 142.57 1254.08 143.99 1254.08 145.75C1254.08 147.51 1255.51 148.93 1257.26 148.92C1259.01 148.92 1260.44 147.5 1260.44 145.74C1260.44 143.98 1259.01 142.57 1257.26 142.57Z" fill="#04949E"/>
<path d="M1306.19 141.81C1304.43 141.86 1303.06 143.34 1303.11 145.09C1303.16 146.81 1304.57 148.17 1306.28 148.17H1306.38C1308.14 148.12 1309.51 146.64 1309.46 144.89C1309.41 143.14 1307.94 141.76 1306.19 141.81Z" fill="#04949E"/>
<path d="M1289.88 142.23C1288.13 142.27 1286.74 143.72 1286.77 145.47C1286.8 147.2 1288.21 148.59 1289.94 148.59H1290.01C1291.76 148.55 1293.15 147.1 1293.12 145.35C1293.09 143.6 1291.64 142.2 1289.88 142.24V142.23Z" fill="#04949E"/>
<path d="M1273.58 142.48C1271.82 142.5 1270.41 143.94 1270.43 145.7C1270.45 147.44 1271.87 148.84 1273.61 148.84H1273.65C1275.4 148.82 1276.81 147.39 1276.79 145.63C1276.77 143.88 1275.34 142.46 1273.58 142.48Z" fill="#04949E"/>
<path d="M1338.77 140.42C1337.02 140.51 1335.68 142.01 1335.77 143.76C1335.86 145.46 1337.26 146.77 1338.94 146.77H1339.12C1340.87 146.67 1342.21 145.17 1342.12 143.42C1342.02 141.67 1340.53 140.32 1338.77 140.42Z" fill="#04949E"/>
<path d="M1355.05 139.42C1353.31 139.54 1351.98 141.05 1352.1 142.81C1352.21 144.49 1353.61 145.77 1355.27 145.77C1355.34 145.77 1355.42 145.77 1355.49 145.77C1357.23 145.65 1358.56 144.14 1358.44 142.38C1358.32 140.64 1356.8 139.31 1355.05 139.43V139.42Z" fill="#04949E"/>
<path d="M1371.31 138.22C1369.56 138.36 1368.25 139.89 1368.4 141.64C1368.54 143.3 1369.93 144.56 1371.57 144.56C1371.65 144.56 1371.74 144.56 1371.82 144.56C1373.57 144.41 1374.88 142.88 1374.74 141.13C1374.59 139.39 1373.06 138.08 1371.32 138.22H1371.31Z" fill="#04949E"/>
<path d="M1387.55 136.77C1385.8 136.94 1384.52 138.5 1384.69 140.24C1384.84 141.88 1386.23 143.12 1387.84 143.12C1387.94 143.12 1388.05 143.12 1388.15 143.1C1389.9 142.94 1391.18 141.38 1391.01 139.64C1390.85 137.89 1389.29 136.61 1387.55 136.77Z" fill="#04949E"/>
<path d="M445.62 134.52C444.8 134.55 443.97 134.58 443.14 134.61C355.5 137.53 267.72 132.71 182.24 120.28L181.45 125.71C251.05 135.83 322.16 140.93 393.48 140.93C410.08 140.93 426.71 140.65 443.32 140.1C444.09 140.07 444.87 140.04 445.64 140.01C445.41 139.11 445.28 138.18 445.28 137.21C445.28 136.24 445.4 135.39 445.61 134.52H445.62Z" fill="#04949E"/>
<path d="M619.86 124.93C591.72 126.02 563.29 127.85 535.8 129.62C513.52 131.05 490.69 132.52 467.83 133.6C468.2 134.74 468.41 135.95 468.41 137.2C468.41 137.84 468.34 138.46 468.24 139.07C491.08 137.98 513.89 136.52 536.14 135.09C563.6 133.32 592 131.5 620.06 130.41C668.41 128.54 716.1 128.82 756.38 129.34L756.45 123.86C716.1 123.34 668.32 123.06 619.85 124.93H619.86Z" fill="#04949E"/>
<path d="M456.85 142.12C455.07 142.12 453.51 141.17 452.64 139.75C450.31 139.84 447.98 139.93 445.65 140.01C446.91 145.02 451.45 148.75 456.85 148.75C462.59 148.75 467.35 144.55 468.24 139.07C465.91 139.18 463.58 139.28 461.26 139.38C460.45 141 458.78 142.11 456.85 142.11V142.12Z" fill="#04949E"/>
<path d="M456.85 132.29C458.31 132.29 459.61 132.93 460.51 133.93C462.95 133.82 465.38 133.72 467.82 133.6C466.3 129 461.96 125.66 456.84 125.66C451.39 125.66 446.83 129.45 445.61 134.52C448.04 134.44 450.48 134.35 452.91 134.25C453.81 133.06 455.23 132.29 456.84 132.29H456.85Z" fill="#04949E"/>
<path d="M467.83 133.6C465.39 133.72 462.96 133.82 460.52 133.93C461.3 134.8 461.78 135.95 461.78 137.21C461.78 137.99 461.59 138.73 461.26 139.39C463.59 139.29 465.92 139.19 468.24 139.08C468.34 138.47 468.41 137.85 468.41 137.21C468.41 135.95 468.2 134.74 467.83 133.61V133.6Z" fill="#04949E"/>
<path d="M451.92 137.2C451.92 136.09 452.3 135.07 452.92 134.24C450.48 134.34 448.05 134.42 445.62 134.51C445.41 135.37 445.29 136.27 445.29 137.2C445.29 138.13 445.42 139.1 445.65 140C447.98 139.92 450.31 139.83 452.64 139.74C452.19 139 451.92 138.13 451.92 137.2Z" fill="#04949E"/>
<path d="M963.32 137.18C963.25 137.18 963.18 137.18 963.11 137.18C894.93 134.07 825.37 132.03 756.37 131.14C753.86 131.11 751.86 129.05 751.89 126.54C751.92 124.05 753.95 122.06 756.43 122.06H756.49C825.59 122.95 895.25 124.99 963.53 128.11C966.03 128.22 967.97 130.35 967.86 132.85C967.75 135.28 965.74 137.18 963.33 137.18H963.32Z" fill="#04949E"/>
<path d="M182.51 118.5C117.08 108.99 55.74 95.32 0 77.86V87.39C55.47 104.59 116.36 118.06 181.2 127.49C181.42 127.52 181.64 127.54 181.86 127.54C184.08 127.54 186.02 125.91 186.35 123.65C186.71 121.17 184.99 118.86 182.51 118.5Z" fill="#04949E"/>
<path d="M398.11 138.91V145.02H395.31V138.91H389.51V136.53H395.31V130.66H398.11V136.53H403.88V138.91H398.11Z" fill="#04949E"/>
<path d="M921.46 28.71C864.28 25.79 805.84 28.33 750.43 36.55L486.7 75.63C427.45 84.41 363.63 86.83 302.13 82.64L301.76 88.11C321.5 89.46 341.46 90.12 361.45 90.12C404.14 90.12 446.89 87.07 487.51 81.05L751.24 41.97C806.43 33.79 864.65 31.27 921.58 34.2C921.46 33.08 921.39 31.94 921.39 30.78C921.39 30.08 921.42 29.39 921.47 28.7L921.46 28.71Z" fill="#04949E"/>
<path d="M952.22 0C935.89 0 922.53 12.68 921.45 28.71C921.4 29.4 921.37 30.09 921.37 30.79C921.37 31.95 921.44 33.08 921.56 34.21C923.26 49.6 936.34 61.58 952.21 61.58C966.24 61.58 978.07 52.23 981.81 39.43C982.32 37.69 982.68 35.89 982.88 34.04C982.99 32.97 983.05 31.89 983.05 30.8C983.05 13.8 969.25 0.01 952.21 0.01L952.22 0Z" fill="#04949E"/>
<path d="M0 32.34V37.92L87.77 54.14C87.82 52.26 88.11 50.44 88.66 48.72L0 32.34Z" fill="#04949E"/>
<path d="M209.82 71.12L126.85 55.78C126.74 57.66 126.37 59.46 125.76 61.16L208.83 76.52L209.83 71.13L209.82 71.12Z" fill="#04949E"/>
<path d="M107.33 35.0699C98.57 35.0699 91.16 40.8099 88.66 48.7199C88.12 50.4299 87.82 52.2499 87.77 54.1399C87.77 54.2999 87.75 54.4599 87.75 54.6199C87.75 65.4199 96.52 74.1699 107.33 74.1699C115.84 74.1699 123.06 68.7399 125.76 61.1699C126.37 59.4699 126.74 57.6699 126.85 55.7899C126.87 55.3999 126.91 55.0199 126.91 54.6199C126.91 43.8199 118.14 35.0699 107.33 35.0699Z" fill="#04949E"/>
<path d="M408.23 122.48H378.64V152.07H408.23V122.48Z" fill="#04949E"/>
<path d="M1358.25 176.85H1328.66V206.44H1358.25V176.85Z" fill="#04949E"/>
<path d="M1070.89 50.08C1042.87 43.13 1013.3 37.78 982.89 34.03C982.7 35.88 982.33 37.68 981.82 39.42C1012.15 43.15 1041.64 48.48 1069.57 55.4C1114.37 66.51 1162.5 73.58 1211.74 76.51V71.02C1162.95 68.1 1115.27 61.08 1070.89 50.08Z" fill="#04949E"/>
<path d="M1279.06 77.94C1278.75 76.56 1278.57 75.14 1278.57 73.67C1278.57 73.26 1278.61 72.86 1278.63 72.46C1266.18 72.67 1253.74 72.59 1241.33 72.27V77.77C1248.88 77.96 1256.44 78.08 1264.02 78.07C1269.03 78.07 1274.04 78.02 1279.06 77.94Z" fill="#04949E"/>
<path d="M1211.75 58.87V71.02V76.52V88.46H1241.34V77.77V72.27V58.87H1211.75Z" fill="#04949E"/>
<path d="M1370.22 66.11C1352.68 68.28 1334.97 69.89 1317.21 70.97C1317.33 71.85 1317.42 72.75 1317.42 73.67C1317.42 74.59 1317.33 75.56 1317.19 76.48C1335.19 75.39 1353.13 73.75 1370.89 71.55L1440 62.99V57.46L1370.22 66.1V66.11Z" fill="#04949E"/>
<path d="M1317.21 70.97C1315.89 61.55 1307.79 54.27 1298 54.27C1287.7 54.27 1279.27 62.33 1278.64 72.46C1278.61 72.86 1278.58 73.26 1278.58 73.67C1278.58 75.14 1278.76 76.57 1279.07 77.94C1281.03 86.58 1288.76 93.06 1298 93.06C1307.75 93.06 1315.83 85.84 1317.2 76.47C1317.33 75.55 1317.43 74.62 1317.43 73.66C1317.43 72.7 1317.34 71.84 1317.22 70.96L1317.21 70.97ZM1307.43 73.67C1307.43 74.86 1307.2 75.99 1306.79 77.04C1305.43 80.57 1302 83.08 1297.99 83.08C1294.24 83.08 1291 80.88 1289.48 77.71C1288.89 76.48 1288.55 75.12 1288.55 73.67C1288.55 73.18 1288.6 72.7 1288.67 72.23C1289.37 67.72 1293.27 64.26 1297.98 64.26C1302.44 64.26 1306.18 67.37 1307.16 71.52C1307.32 72.21 1307.42 72.93 1307.42 73.67H1307.43Z" fill="#04949E"/>
<path d="M301.94 89.9C301.84 89.9 301.73 89.9 301.63 89.89C269.75 87.72 238.42 83.82 208.51 78.28C206.04 77.82 204.41 75.45 204.87 72.99C205.33 70.52 207.7 68.9 210.16 69.35C239.73 74.82 270.71 78.68 302.25 80.83C304.75 81 306.64 83.17 306.47 85.67C306.31 88.07 304.31 89.9 301.94 89.9Z" fill="#04949E"/>
<path d="M1176.97 145.15V151.26H1174.08V145.15H1168.1V142.77H1174.08V136.9H1176.97V142.77H1182.92V145.15H1176.97Z" fill="white"/>
<path d="M965.68 32.27H955.27V36.59V43.27H950.22V36.16V32.27H939.77V29.84V27.98H950.22V17.41H955.27V27.98H965.68V32.09V32.27Z" fill="white"/>
<path d="M117.08 56.63H109.23V58.11V64.94H105.42V57.4V56.63H101.26H97.53V55.94V53.4H105.42V51.82V45.42H109.23V52.53V53.4H113.96H117.08V53.98V56.63Z" fill="white"/>
<path d="M394.89 138.35V144.46H392V138.35H386.02V135.97H392V130.1H394.89V135.97H400.84V138.35H394.89Z" fill="white"/>
</svg>
