<svg width="1165" height="374" viewBox="0 0 1165 374" fill="none" xmlns="http://www.w3.org/2000/svg">
<mask id="mask0_5280_2042" style="mask-type:luminance" maskUnits="userSpaceOnUse" x="0" y="0" width="1165" height="374">
<path d="M1165 0H0V374H1165V0Z" fill="white"/>
</mask>
<g mask="url(#mask0_5280_2042)">
<path d="M-296.969 283.363L756.649 -605.691" stroke="#C39FD1" stroke-width="0.55" stroke-miterlimit="10"/>
<path d="M-294.859 285.144L758.759 -603.91" stroke="#C39FD1" stroke-width="0.55" stroke-miterlimit="10"/>
<path d="M-313.875 269.098L739.744 -619.956" stroke="#C39FD1" stroke-width="0.55" stroke-miterlimit="10"/>
<path d="M-309.643 272.669L743.975 -616.385" stroke="#C39FD1" stroke-width="0.55" stroke-miterlimit="10"/>
<path d="M-292.738 286.924L760.869 -602.12" stroke="#C39FD1" stroke-width="0.55" stroke-miterlimit="10"/>
<path d="M-290.627 288.714L762.991 -600.339" stroke="#C39FD1" stroke-width="0.55" stroke-miterlimit="10"/>
<path d="M-305.422 276.23L748.196 -612.823" stroke="#C39FD1" stroke-width="0.55" stroke-miterlimit="10"/>
<path d="M-301.19 279.792L752.417 -609.253" stroke="#C39FD1" stroke-width="0.55" stroke-miterlimit="10"/>
<path d="M-330.769 254.833L722.838 -634.212" stroke="#C39FD1" stroke-width="0.55" stroke-miterlimit="10"/>
<path d="M-326.548 258.404L727.07 -630.65" stroke="#C39FD1" stroke-width="0.55" stroke-miterlimit="10"/>
<path d="M-322.317 261.965L731.291 -627.079" stroke="#C39FD1" stroke-width="0.55" stroke-miterlimit="10"/>
<path d="M-318.096 265.536L735.522 -623.517" stroke="#C39FD1" stroke-width="0.55" stroke-miterlimit="10"/>
<path d="M-337.111 249.491L716.507 -639.563" stroke="#C39FD1" stroke-width="0.55" stroke-miterlimit="10"/>
<path d="M-335.001 251.271L718.617 -637.782" stroke="#C39FD1" stroke-width="0.55" stroke-miterlimit="10"/>
<path d="M-311.754 270.879L741.854 -618.166" stroke="#C39FD1" stroke-width="0.55" stroke-miterlimit="10"/>
<path d="M-307.532 274.45L746.086 -614.604" stroke="#C39FD1" stroke-width="0.55" stroke-miterlimit="10"/>
<path d="M-328.659 256.623L724.959 -632.431" stroke="#C39FD1" stroke-width="0.55" stroke-miterlimit="10"/>
<path d="M-324.438 260.185L729.18 -628.869" stroke="#C39FD1" stroke-width="0.55" stroke-miterlimit="10"/>
<path d="M-303.301 278.011L750.307 -611.033" stroke="#C39FD1" stroke-width="0.55" stroke-miterlimit="10"/>
<path d="M-299.08 281.582L754.538 -607.472" stroke="#C39FD1" stroke-width="0.55" stroke-miterlimit="10"/>
<path d="M-320.206 263.746L733.401 -625.298" stroke="#C39FD1" stroke-width="0.55" stroke-miterlimit="10"/>
<path d="M-315.985 267.317L737.633 -621.737" stroke="#C39FD1" stroke-width="0.55" stroke-miterlimit="10"/>
<path d="M-339.222 247.701L714.386 -641.344" stroke="#C39FD1" stroke-width="0.55" stroke-miterlimit="10"/>
<path d="M-341.332 245.92L712.275 -643.125" stroke="#C39FD1" stroke-width="0.55" stroke-miterlimit="10"/>
<path d="M-332.89 253.052L720.727 -636.001" stroke="#C39FD1" stroke-width="0.55" stroke-miterlimit="10"/>
<path d="M-229.359 340.413L824.259 -548.641" stroke="#C39FD1" stroke-width="0.55" stroke-miterlimit="10"/>
<path d="M-227.238 342.194L826.369 -546.851" stroke="#C39FD1" stroke-width="0.55" stroke-miterlimit="10"/>
<path d="M-246.254 326.148L807.353 -562.897" stroke="#C39FD1" stroke-width="0.55" stroke-miterlimit="10"/>
<path d="M-242.033 329.719L811.585 -559.335" stroke="#C39FD1" stroke-width="0.55" stroke-miterlimit="10"/>
<path d="M-225.128 343.975L828.48 -545.07" stroke="#C39FD1" stroke-width="0.55" stroke-miterlimit="10"/>
<path d="M-223.017 345.764L830.601 -543.289" stroke="#C39FD1" stroke-width="0.55" stroke-miterlimit="10"/>
<path d="M-237.812 333.28L815.806 -555.773" stroke="#C39FD1" stroke-width="0.55" stroke-miterlimit="10"/>
<path d="M-233.58 336.851L820.037 -552.203" stroke="#C39FD1" stroke-width="0.55" stroke-miterlimit="10"/>
<path d="M-263.159 311.883L790.448 -577.161" stroke="#C39FD1" stroke-width="0.55" stroke-miterlimit="10"/>
<path d="M-258.938 315.454L794.68 -573.6" stroke="#C39FD1" stroke-width="0.55" stroke-miterlimit="10"/>
<path d="M-280.064 297.627L773.553 -591.426" stroke="#C39FD1" stroke-width="0.55" stroke-miterlimit="10"/>
<path d="M-275.843 301.189L777.775 -587.864" stroke="#C39FD1" stroke-width="0.55" stroke-miterlimit="10"/>
<path d="M-254.707 319.016L798.901 -570.029" stroke="#C39FD1" stroke-width="0.55" stroke-miterlimit="10"/>
<path d="M-250.485 322.586L803.132 -566.467" stroke="#C39FD1" stroke-width="0.55" stroke-miterlimit="10"/>
<path d="M-271.612 304.76L782.006 -584.294" stroke="#C39FD1" stroke-width="0.55" stroke-miterlimit="10"/>
<path d="M-267.391 308.322L786.227 -580.732" stroke="#C39FD1" stroke-width="0.55" stroke-miterlimit="10"/>
<path d="M-244.143 327.929L809.464 -561.116" stroke="#C39FD1" stroke-width="0.55" stroke-miterlimit="10"/>
<path d="M-239.922 331.499L813.695 -557.554" stroke="#C39FD1" stroke-width="0.55" stroke-miterlimit="10"/>
<path d="M-261.049 313.673L792.569 -575.381" stroke="#C39FD1" stroke-width="0.55" stroke-miterlimit="10"/>
<path d="M-256.828 317.235L796.79 -571.819" stroke="#C39FD1" stroke-width="0.55" stroke-miterlimit="10"/>
<path d="M-235.691 335.061L817.917 -553.983" stroke="#C39FD1" stroke-width="0.55" stroke-miterlimit="10"/>
<path d="M-231.47 338.632L822.148 -550.422" stroke="#C39FD1" stroke-width="0.55" stroke-miterlimit="10"/>
<path d="M-252.596 320.806L801.022 -568.248" stroke="#C39FD1" stroke-width="0.55" stroke-miterlimit="10"/>
<path d="M-248.375 324.367L805.243 -564.687" stroke="#C39FD1" stroke-width="0.55" stroke-miterlimit="10"/>
<path d="M-277.954 299.408L775.664 -589.645" stroke="#C39FD1" stroke-width="0.55" stroke-miterlimit="10"/>
<path d="M-273.722 302.97L779.885 -586.075" stroke="#C39FD1" stroke-width="0.55" stroke-miterlimit="10"/>
<path d="M-288.517 290.495L765.101 -598.558" stroke="#C39FD1" stroke-width="0.55" stroke-miterlimit="10"/>
<path d="M-286.406 292.276L767.212 -596.778" stroke="#C39FD1" stroke-width="0.55" stroke-miterlimit="10"/>
<path d="M-269.501 306.541L784.117 -582.513" stroke="#C39FD1" stroke-width="0.55" stroke-miterlimit="10"/>
<path d="M-265.27 310.102L788.338 -578.942" stroke="#C39FD1" stroke-width="0.55" stroke-miterlimit="10"/>
<path d="M-284.285 294.057L769.322 -594.988" stroke="#C39FD1" stroke-width="0.55" stroke-miterlimit="10"/>
<path d="M-282.175 295.838L771.433 -593.207" stroke="#C39FD1" stroke-width="0.55" stroke-miterlimit="10"/>
<path d="M-161.739 397.463L891.869 -491.582" stroke="#C39FD1" stroke-width="0.55" stroke-miterlimit="10"/>
<path d="M-159.628 399.244L893.979 -489.801" stroke="#C39FD1" stroke-width="0.55" stroke-miterlimit="10"/>
<path d="M-178.644 383.198L874.964 -505.846" stroke="#C39FD1" stroke-width="0.55" stroke-miterlimit="10"/>
<path d="M-174.423 386.769L879.195 -502.285" stroke="#C39FD1" stroke-width="0.55" stroke-miterlimit="10"/>
<path d="M-157.518 401.033L896.1 -488.02" stroke="#C39FD1" stroke-width="0.55" stroke-miterlimit="10"/>
<path d="M-155.407 402.814L898.211 -486.239" stroke="#C39FD1" stroke-width="0.55" stroke-miterlimit="10"/>
<path d="M-170.191 390.331L883.416 -498.714" stroke="#C39FD1" stroke-width="0.55" stroke-miterlimit="10"/>
<path d="M-165.97 393.901L887.648 -495.152" stroke="#C39FD1" stroke-width="0.55" stroke-miterlimit="10"/>
<path d="M-195.549 368.942L858.069 -520.111" stroke="#C39FD1" stroke-width="0.55" stroke-miterlimit="10"/>
<path d="M-191.328 372.504L862.29 -516.55" stroke="#C39FD1" stroke-width="0.55" stroke-miterlimit="10"/>
<path d="M-212.454 354.678L841.164 -534.376" stroke="#C39FD1" stroke-width="0.55" stroke-miterlimit="10"/>
<path d="M-208.223 358.239L845.385 -530.805" stroke="#C39FD1" stroke-width="0.55" stroke-miterlimit="10"/>
<path d="M-187.096 376.066L866.511 -512.979" stroke="#C39FD1" stroke-width="0.55" stroke-miterlimit="10"/>
<path d="M-182.875 379.637L870.743 -509.417" stroke="#C39FD1" stroke-width="0.55" stroke-miterlimit="10"/>
<path d="M-204.001 361.81L849.617 -527.244" stroke="#C39FD1" stroke-width="0.55" stroke-miterlimit="10"/>
<path d="M-199.77 365.372L853.837 -523.673" stroke="#C39FD1" stroke-width="0.55" stroke-miterlimit="10"/>
<path d="M-176.533 384.988L877.085 -504.066" stroke="#C39FD1" stroke-width="0.55" stroke-miterlimit="10"/>
<path d="M-172.312 388.55L881.306 -500.504" stroke="#C39FD1" stroke-width="0.55" stroke-miterlimit="10"/>
<path d="M-193.438 370.723L860.18 -518.33" stroke="#C39FD1" stroke-width="0.55" stroke-miterlimit="10"/>
<path d="M-189.207 374.285L864.401 -514.76" stroke="#C39FD1" stroke-width="0.55" stroke-miterlimit="10"/>
<path d="M-168.081 392.111L885.527 -496.933" stroke="#C39FD1" stroke-width="0.55" stroke-miterlimit="10"/>
<path d="M-163.86 395.682L889.758 -493.372" stroke="#C39FD1" stroke-width="0.55" stroke-miterlimit="10"/>
<path d="M-184.986 377.856L868.632 -511.198" stroke="#C39FD1" stroke-width="0.55" stroke-miterlimit="10"/>
<path d="M-180.754 381.417L872.853 -507.627" stroke="#C39FD1" stroke-width="0.55" stroke-miterlimit="10"/>
<path d="M-210.344 356.458L843.274 -532.595" stroke="#C39FD1" stroke-width="0.55" stroke-miterlimit="10"/>
<path d="M-206.112 360.02L847.495 -529.025" stroke="#C39FD1" stroke-width="0.55" stroke-miterlimit="10"/>
<path d="M-220.907 347.545L832.711 -541.508" stroke="#C39FD1" stroke-width="0.55" stroke-miterlimit="10"/>
<path d="M-218.796 349.326L834.822 -539.728" stroke="#C39FD1" stroke-width="0.55" stroke-miterlimit="10"/>
<path d="M-201.891 363.591L851.727 -525.463" stroke="#C39FD1" stroke-width="0.55" stroke-miterlimit="10"/>
<path d="M-197.659 367.153L855.948 -521.892" stroke="#C39FD1" stroke-width="0.55" stroke-miterlimit="10"/>
<path d="M-216.675 351.107L836.932 -537.938" stroke="#C39FD1" stroke-width="0.55" stroke-miterlimit="10"/>
<path d="M-214.565 352.897L839.053 -536.157" stroke="#C39FD1" stroke-width="0.55" stroke-miterlimit="10"/>
<path d="M-94.1285 454.513L959.479 -434.532" stroke="#C39FD1" stroke-width="0.55" stroke-miterlimit="10"/>
<path d="M-92.0179 456.294L961.589 -432.751" stroke="#C39FD1" stroke-width="0.55" stroke-miterlimit="10"/>
<path d="M-111.034 440.248L942.574 -448.797" stroke="#C39FD1" stroke-width="0.55" stroke-miterlimit="10"/>
<path d="M-106.813 443.819L946.805 -445.235" stroke="#C39FD1" stroke-width="0.55" stroke-miterlimit="10"/>
<path d="M-89.9076 458.084L963.71 -430.97" stroke="#C39FD1" stroke-width="0.55" stroke-miterlimit="10"/>
<path d="M-87.7971 459.865L965.821 -429.189" stroke="#C39FD1" stroke-width="0.55" stroke-miterlimit="10"/>
<path d="M-102.581 447.381L951.026 -441.664" stroke="#C39FD1" stroke-width="0.55" stroke-miterlimit="10"/>
<path d="M-98.3602 450.951L955.258 -438.102" stroke="#C39FD1" stroke-width="0.55" stroke-miterlimit="10"/>
<path d="M-127.939 425.992L925.679 -463.061" stroke="#C39FD1" stroke-width="0.55" stroke-miterlimit="10"/>
<path d="M-123.707 429.554L929.9 -459.491" stroke="#C39FD1" stroke-width="0.55" stroke-miterlimit="10"/>
<path d="M-144.844 411.728L908.774 -477.326" stroke="#C39FD1" stroke-width="0.55" stroke-miterlimit="10"/>
<path d="M-140.613 415.289L912.995 -473.755" stroke="#C39FD1" stroke-width="0.55" stroke-miterlimit="10"/>
<path d="M-119.486 433.125L934.132 -455.929" stroke="#C39FD1" stroke-width="0.55" stroke-miterlimit="10"/>
<path d="M-115.265 436.686L938.352 -452.367" stroke="#C39FD1" stroke-width="0.55" stroke-miterlimit="10"/>
<path d="M-136.391 418.86L917.226 -470.194" stroke="#C39FD1" stroke-width="0.55" stroke-miterlimit="10"/>
<path d="M-132.16 422.422L921.448 -466.623" stroke="#C39FD1" stroke-width="0.55" stroke-miterlimit="10"/>
<path d="M-108.923 442.038L944.695 -447.016" stroke="#C39FD1" stroke-width="0.55" stroke-miterlimit="10"/>
<path d="M-104.692 445.6L948.916 -443.445" stroke="#C39FD1" stroke-width="0.55" stroke-miterlimit="10"/>
<path d="M-125.828 427.773L927.79 -461.28" stroke="#C39FD1" stroke-width="0.55" stroke-miterlimit="10"/>
<path d="M-121.597 431.335L932.011 -457.71" stroke="#C39FD1" stroke-width="0.55" stroke-miterlimit="10"/>
<path d="M-100.471 449.17L953.147 -439.883" stroke="#C39FD1" stroke-width="0.55" stroke-miterlimit="10"/>
<path d="M-96.2496 452.732L957.368 -436.322" stroke="#C39FD1" stroke-width="0.55" stroke-miterlimit="10"/>
<path d="M-117.376 434.906L936.242 -454.148" stroke="#C39FD1" stroke-width="0.55" stroke-miterlimit="10"/>
<path d="M-113.144 438.467L940.463 -450.577" stroke="#C39FD1" stroke-width="0.55" stroke-miterlimit="10"/>
<path d="M-142.723 413.508L910.884 -475.536" stroke="#C39FD1" stroke-width="0.55" stroke-miterlimit="10"/>
<path d="M-138.502 417.079L915.116 -471.974" stroke="#C39FD1" stroke-width="0.55" stroke-miterlimit="10"/>
<path d="M-153.297 404.595L900.321 -484.458" stroke="#C39FD1" stroke-width="0.55" stroke-miterlimit="10"/>
<path d="M-151.176 406.376L902.432 -482.669" stroke="#C39FD1" stroke-width="0.55" stroke-miterlimit="10"/>
<path d="M-134.281 420.641L919.337 -468.413" stroke="#C39FD1" stroke-width="0.55" stroke-miterlimit="10"/>
<path d="M-130.049 424.203L923.558 -464.842" stroke="#C39FD1" stroke-width="0.55" stroke-miterlimit="10"/>
<path d="M-149.065 408.157L904.542 -480.888" stroke="#C39FD1" stroke-width="0.55" stroke-miterlimit="10"/>
<path d="M-146.955 409.947L906.663 -479.107" stroke="#C39FD1" stroke-width="0.55" stroke-miterlimit="10"/>
<path d="M-26.5184 511.563L1027.09 -377.482" stroke="#C39FD1" stroke-width="0.55" stroke-miterlimit="10"/>
<path d="M-24.408 513.353L1029.21 -375.701" stroke="#C39FD1" stroke-width="0.55" stroke-miterlimit="10"/>
<path d="M-43.4237 497.307L1010.19 -391.746" stroke="#C39FD1" stroke-width="0.55" stroke-miterlimit="10"/>
<path d="M-39.2026 500.869L1014.42 -388.185" stroke="#C39FD1" stroke-width="0.55" stroke-miterlimit="10"/>
<path d="M-22.2974 515.134L1031.32 -373.92" stroke="#C39FD1" stroke-width="0.55" stroke-miterlimit="10"/>
<path d="M-20.187 516.915L1033.43 -372.139" stroke="#C39FD1" stroke-width="0.55" stroke-miterlimit="10"/>
<path d="M-34.9712 504.44L1018.65 -384.614" stroke="#C39FD1" stroke-width="0.55" stroke-miterlimit="10"/>
<path d="M-30.7501 508.001L1022.87 -381.052" stroke="#C39FD1" stroke-width="0.55" stroke-miterlimit="10"/>
<path d="M-60.3289 483.043L993.289 -406.011" stroke="#C39FD1" stroke-width="0.55" stroke-miterlimit="10"/>
<path d="M-56.0973 486.604L997.51 -402.44" stroke="#C39FD1" stroke-width="0.55" stroke-miterlimit="10"/>
<path d="M-77.2339 468.778L976.384 -420.276" stroke="#C39FD1" stroke-width="0.55" stroke-miterlimit="10"/>
<path d="M-73.0023 472.349L980.616 -416.705" stroke="#C39FD1" stroke-width="0.55" stroke-miterlimit="10"/>
<path d="M-51.8763 490.175L1001.74 -398.879" stroke="#C39FD1" stroke-width="0.55" stroke-miterlimit="10"/>
<path d="M-47.6448 493.737L1005.96 -395.308" stroke="#C39FD1" stroke-width="0.55" stroke-miterlimit="10"/>
<path d="M-68.7812 475.91L984.837 -413.144" stroke="#C39FD1" stroke-width="0.55" stroke-miterlimit="10"/>
<path d="M-64.5499 479.472L989.058 -409.573" stroke="#C39FD1" stroke-width="0.55" stroke-miterlimit="10"/>
<path d="M-41.3132 499.088L1012.3 -389.965" stroke="#C39FD1" stroke-width="0.55" stroke-miterlimit="10"/>
<path d="M-37.0815 502.65L1016.53 -386.395" stroke="#C39FD1" stroke-width="0.55" stroke-miterlimit="10"/>
<path d="M-58.2184 484.823L995.4 -404.23" stroke="#C39FD1" stroke-width="0.55" stroke-miterlimit="10"/>
<path d="M-53.9868 488.394L999.631 -400.66" stroke="#C39FD1" stroke-width="0.55" stroke-miterlimit="10"/>
<path d="M-32.8606 506.22L1020.76 -382.833" stroke="#C39FD1" stroke-width="0.55" stroke-miterlimit="10"/>
<path d="M-28.6289 509.782L1024.98 -379.262" stroke="#C39FD1" stroke-width="0.55" stroke-miterlimit="10"/>
<path d="M-49.7657 491.956L1003.85 -397.098" stroke="#C39FD1" stroke-width="0.55" stroke-miterlimit="10"/>
<path d="M-45.5342 495.517L1008.07 -393.527" stroke="#C39FD1" stroke-width="0.55" stroke-miterlimit="10"/>
<path d="M-75.1128 470.559L978.495 -418.486" stroke="#C39FD1" stroke-width="0.55" stroke-miterlimit="10"/>
<path d="M-70.8918 474.129L982.726 -414.924" stroke="#C39FD1" stroke-width="0.55" stroke-miterlimit="10"/>
<path d="M-85.6759 461.645L967.932 -427.399" stroke="#C39FD1" stroke-width="0.55" stroke-miterlimit="10"/>
<path d="M-83.5654 463.426L970.042 -425.619" stroke="#C39FD1" stroke-width="0.55" stroke-miterlimit="10"/>
<path d="M-66.6604 477.691L986.947 -411.354" stroke="#C39FD1" stroke-width="0.55" stroke-miterlimit="10"/>
<path d="M-62.4395 481.262L991.178 -407.792" stroke="#C39FD1" stroke-width="0.55" stroke-miterlimit="10"/>
<path d="M-81.455 465.216L972.163 -423.838" stroke="#C39FD1" stroke-width="0.55" stroke-miterlimit="10"/>
<path d="M-79.3444 466.997L974.274 -422.057" stroke="#C39FD1" stroke-width="0.55" stroke-miterlimit="10"/>
<path d="M41.0916 568.622L1094.71 -320.432" stroke="#C39FD1" stroke-width="0.55" stroke-miterlimit="10"/>
<path d="M43.2021 570.403L1096.82 -318.651" stroke="#C39FD1" stroke-width="0.55" stroke-miterlimit="10"/>
<path d="M24.1864 554.357L1077.8 -334.696" stroke="#C39FD1" stroke-width="0.55" stroke-miterlimit="10"/>
<path d="M28.418 557.919L1082.03 -331.126" stroke="#C39FD1" stroke-width="0.55" stroke-miterlimit="10"/>
<path d="M45.3126 572.184L1098.93 -316.87" stroke="#C39FD1" stroke-width="0.55" stroke-miterlimit="10"/>
<path d="M47.4337 573.965L1101.04 -315.08" stroke="#C39FD1" stroke-width="0.55" stroke-miterlimit="10"/>
<path d="M32.639 561.49L1086.26 -327.564" stroke="#C39FD1" stroke-width="0.55" stroke-miterlimit="10"/>
<path d="M36.8601 565.052L1090.48 -324.002" stroke="#C39FD1" stroke-width="0.55" stroke-miterlimit="10"/>
<path d="M7.28125 540.093L1060.9 -348.961" stroke="#C39FD1" stroke-width="0.55" stroke-miterlimit="10"/>
<path d="M11.5128 543.654L1065.12 -345.39" stroke="#C39FD1" stroke-width="0.55" stroke-miterlimit="10"/>
<path d="M-9.61328 525.828L1043.99 -363.217" stroke="#C39FD1" stroke-width="0.55" stroke-miterlimit="10"/>
<path d="M-5.39233 529.399L1048.23 -359.655" stroke="#C39FD1" stroke-width="0.55" stroke-miterlimit="10"/>
<path d="M15.7339 547.225L1069.35 -341.829" stroke="#C39FD1" stroke-width="0.55" stroke-miterlimit="10"/>
<path d="M19.9655 550.787L1073.57 -338.258" stroke="#C39FD1" stroke-width="0.55" stroke-miterlimit="10"/>
<path d="M-1.17126 532.96L1052.45 -356.094" stroke="#C39FD1" stroke-width="0.55" stroke-miterlimit="10"/>
<path d="M3.0603 536.531L1056.68 -352.523" stroke="#C39FD1" stroke-width="0.55" stroke-miterlimit="10"/>
<path d="M26.297 556.138L1079.92 -332.915" stroke="#C39FD1" stroke-width="0.55" stroke-miterlimit="10"/>
<path d="M30.5286 559.7L1084.14 -329.345" stroke="#C39FD1" stroke-width="0.55" stroke-miterlimit="10"/>
<path d="M9.40234 541.873L1063.01 -347.171" stroke="#C39FD1" stroke-width="0.55" stroke-miterlimit="10"/>
<path d="M13.6233 545.444L1067.24 -343.61" stroke="#C39FD1" stroke-width="0.55" stroke-miterlimit="10"/>
<path d="M34.7495 563.271L1088.37 -325.783" stroke="#C39FD1" stroke-width="0.55" stroke-miterlimit="10"/>
<path d="M38.9811 566.832L1092.59 -322.212" stroke="#C39FD1" stroke-width="0.55" stroke-miterlimit="10"/>
<path d="M17.8444 549.006L1071.46 -340.048" stroke="#C39FD1" stroke-width="0.55" stroke-miterlimit="10"/>
<path d="M22.0759 552.577L1075.69 -336.477" stroke="#C39FD1" stroke-width="0.55" stroke-miterlimit="10"/>
<path d="M-7.50281 527.609L1046.1 -361.436" stroke="#C39FD1" stroke-width="0.55" stroke-miterlimit="10"/>
<path d="M-3.28174 531.179L1050.34 -357.874" stroke="#C39FD1" stroke-width="0.55" stroke-miterlimit="10"/>
<path d="M-18.0659 518.695L1035.54 -370.349" stroke="#C39FD1" stroke-width="0.55" stroke-miterlimit="10"/>
<path d="M-15.9553 520.485L1037.66 -368.568" stroke="#C39FD1" stroke-width="0.55" stroke-miterlimit="10"/>
<path d="M0.949707 534.741L1054.56 -354.304" stroke="#C39FD1" stroke-width="0.55" stroke-miterlimit="10"/>
<path d="M5.17078 538.312L1058.79 -350.742" stroke="#C39FD1" stroke-width="0.55" stroke-miterlimit="10"/>
<path d="M-13.8448 522.266L1039.77 -366.787" stroke="#C39FD1" stroke-width="0.55" stroke-miterlimit="10"/>
<path d="M-11.7344 524.047L1041.88 -365.007" stroke="#C39FD1" stroke-width="0.55" stroke-miterlimit="10"/>
<path d="M108.702 625.672L1162.32 -263.381" stroke="#C39FD1" stroke-width="0.55" stroke-miterlimit="10"/>
<path d="M110.812 627.453L1164.43 -261.601" stroke="#C39FD1" stroke-width="0.55" stroke-miterlimit="10"/>
<path d="M91.7965 611.407L1145.41 -277.646" stroke="#C39FD1" stroke-width="0.55" stroke-miterlimit="10"/>
<path d="M96.0281 614.969L1149.64 -274.076" stroke="#C39FD1" stroke-width="0.55" stroke-miterlimit="10"/>
<path d="M112.923 629.234L1166.54 -259.82" stroke="#C39FD1" stroke-width="0.55" stroke-miterlimit="10"/>
<path d="M115.044 631.015L1168.65 -258.03" stroke="#C39FD1" stroke-width="0.55" stroke-miterlimit="10"/>
<path d="M100.249 618.54L1153.87 -270.514" stroke="#C39FD1" stroke-width="0.55" stroke-miterlimit="10"/>
<path d="M104.481 622.101L1158.09 -266.943" stroke="#C39FD1" stroke-width="0.55" stroke-miterlimit="10"/>
<path d="M74.8915 597.143L1128.51 -291.911" stroke="#C39FD1" stroke-width="0.55" stroke-miterlimit="10"/>
<path d="M79.123 600.713L1132.74 -288.34" stroke="#C39FD1" stroke-width="0.55" stroke-miterlimit="10"/>
<path d="M57.9968 582.878L1111.6 -306.167" stroke="#C39FD1" stroke-width="0.55" stroke-miterlimit="10"/>
<path d="M62.2179 586.449L1115.84 -302.605" stroke="#C39FD1" stroke-width="0.55" stroke-miterlimit="10"/>
<path d="M83.344 604.275L1136.96 -284.779" stroke="#C39FD1" stroke-width="0.55" stroke-miterlimit="10"/>
<path d="M87.5754 607.837L1141.18 -281.208" stroke="#C39FD1" stroke-width="0.55" stroke-miterlimit="10"/>
<path d="M66.4495 590.01L1120.06 -299.034" stroke="#C39FD1" stroke-width="0.55" stroke-miterlimit="10"/>
<path d="M70.6704 593.581L1124.29 -295.473" stroke="#C39FD1" stroke-width="0.55" stroke-miterlimit="10"/>
<path d="M93.907 613.188L1147.52 -275.865" stroke="#C39FD1" stroke-width="0.55" stroke-miterlimit="10"/>
<path d="M98.1387 616.759L1151.76 -272.295" stroke="#C39FD1" stroke-width="0.55" stroke-miterlimit="10"/>
<path d="M77.0125 598.924L1130.62 -290.121" stroke="#C39FD1" stroke-width="0.55" stroke-miterlimit="10"/>
<path d="M81.2335 602.494L1134.85 -286.56" stroke="#C39FD1" stroke-width="0.55" stroke-miterlimit="10"/>
<path d="M102.36 620.321L1155.98 -268.733" stroke="#C39FD1" stroke-width="0.55" stroke-miterlimit="10"/>
<path d="M106.591 623.882L1160.2 -265.162" stroke="#C39FD1" stroke-width="0.55" stroke-miterlimit="10"/>
<path d="M85.465 606.056L1139.07 -282.989" stroke="#C39FD1" stroke-width="0.55" stroke-miterlimit="10"/>
<path d="M89.686 609.627L1143.3 -279.427" stroke="#C39FD1" stroke-width="0.55" stroke-miterlimit="10"/>
<path d="M60.1074 584.668L1113.73 -304.386" stroke="#C39FD1" stroke-width="0.55" stroke-miterlimit="10"/>
<path d="M64.3284 588.229L1117.95 -300.824" stroke="#C39FD1" stroke-width="0.55" stroke-miterlimit="10"/>
<path d="M49.5443 575.746L1103.15 -313.299" stroke="#C39FD1" stroke-width="0.55" stroke-miterlimit="10"/>
<path d="M51.6548 577.535L1105.27 -311.518" stroke="#C39FD1" stroke-width="0.55" stroke-miterlimit="10"/>
<path d="M68.5599 591.791L1122.17 -297.254" stroke="#C39FD1" stroke-width="0.55" stroke-miterlimit="10"/>
<path d="M72.781 595.362L1126.4 -293.692" stroke="#C39FD1" stroke-width="0.55" stroke-miterlimit="10"/>
<path d="M53.7651 579.316L1107.38 -309.738" stroke="#C39FD1" stroke-width="0.55" stroke-miterlimit="10"/>
<path d="M55.8757 581.097L1109.49 -307.957" stroke="#C39FD1" stroke-width="0.55" stroke-miterlimit="10"/>
<path d="M176.312 682.722L1229.93 -206.331" stroke="#C39FD1" stroke-width="0.55" stroke-miterlimit="10"/>
<path d="M178.422 684.503L1232.04 -204.55" stroke="#C39FD1" stroke-width="0.55" stroke-miterlimit="10"/>
<path d="M159.407 668.458L1213.02 -220.596" stroke="#C39FD1" stroke-width="0.55" stroke-miterlimit="10"/>
<path d="M163.638 672.019L1217.25 -217.025" stroke="#C39FD1" stroke-width="0.55" stroke-miterlimit="10"/>
<path d="M180.543 686.284L1234.15 -202.761" stroke="#C39FD1" stroke-width="0.55" stroke-miterlimit="10"/>
<path d="M182.654 688.065L1236.26 -200.98" stroke="#C39FD1" stroke-width="0.55" stroke-miterlimit="10"/>
<path d="M167.859 675.59L1221.48 -213.464" stroke="#C39FD1" stroke-width="0.55" stroke-miterlimit="10"/>
<path d="M172.091 679.152L1225.7 -209.893" stroke="#C39FD1" stroke-width="0.55" stroke-miterlimit="10"/>
<path d="M142.512 654.193L1196.12 -234.852" stroke="#C39FD1" stroke-width="0.55" stroke-miterlimit="10"/>
<path d="M146.733 657.763L1200.35 -231.29" stroke="#C39FD1" stroke-width="0.55" stroke-miterlimit="10"/>
<path d="M125.607 639.928L1179.21 -249.117" stroke="#C39FD1" stroke-width="0.55" stroke-miterlimit="10"/>
<path d="M129.828 643.499L1183.45 -245.555" stroke="#C39FD1" stroke-width="0.55" stroke-miterlimit="10"/>
<path d="M150.954 661.325L1204.57 -227.729" stroke="#C39FD1" stroke-width="0.55" stroke-miterlimit="10"/>
<path d="M155.186 664.896L1208.8 -224.158" stroke="#C39FD1" stroke-width="0.55" stroke-miterlimit="10"/>
<path d="M134.059 647.06L1187.67 -241.984" stroke="#C39FD1" stroke-width="0.55" stroke-miterlimit="10"/>
<path d="M138.281 650.631L1191.9 -238.423" stroke="#C39FD1" stroke-width="0.55" stroke-miterlimit="10"/>
<path d="M161.528 670.239L1215.14 -218.806" stroke="#C39FD1" stroke-width="0.55" stroke-miterlimit="10"/>
<path d="M165.749 673.809L1219.37 -215.245" stroke="#C39FD1" stroke-width="0.55" stroke-miterlimit="10"/>
<path d="M144.623 655.974L1198.23 -233.071" stroke="#C39FD1" stroke-width="0.55" stroke-miterlimit="10"/>
<path d="M148.844 659.544L1202.46 -229.509" stroke="#C39FD1" stroke-width="0.55" stroke-miterlimit="10"/>
<path d="M169.97 677.371L1223.59 -211.683" stroke="#C39FD1" stroke-width="0.55" stroke-miterlimit="10"/>
<path d="M174.201 680.941L1227.82 -208.112" stroke="#C39FD1" stroke-width="0.55" stroke-miterlimit="10"/>
<path d="M153.075 663.106L1206.68 -225.939" stroke="#C39FD1" stroke-width="0.55" stroke-miterlimit="10"/>
<path d="M157.296 666.677L1210.91 -222.377" stroke="#C39FD1" stroke-width="0.55" stroke-miterlimit="10"/>
<path d="M127.717 641.718L1181.34 -247.336" stroke="#C39FD1" stroke-width="0.55" stroke-miterlimit="10"/>
<path d="M131.938 645.28L1185.56 -243.774" stroke="#C39FD1" stroke-width="0.55" stroke-miterlimit="10"/>
<path d="M117.154 632.805L1170.77 -256.249" stroke="#C39FD1" stroke-width="0.55" stroke-miterlimit="10"/>
<path d="M119.265 634.585L1172.88 -254.468" stroke="#C39FD1" stroke-width="0.55" stroke-miterlimit="10"/>
<path d="M136.17 648.85L1189.79 -240.203" stroke="#C39FD1" stroke-width="0.55" stroke-miterlimit="10"/>
<path d="M140.391 652.412L1194.01 -236.642" stroke="#C39FD1" stroke-width="0.55" stroke-miterlimit="10"/>
<path d="M121.375 636.366L1174.99 -252.687" stroke="#C39FD1" stroke-width="0.55" stroke-miterlimit="10"/>
<path d="M123.496 638.147L1177.1 -250.898" stroke="#C39FD1" stroke-width="0.55" stroke-miterlimit="10"/>
<path d="M243.922 739.772L1297.54 -149.281" stroke="#C39FD1" stroke-width="0.55" stroke-miterlimit="10"/>
<path d="M246.032 741.553L1299.65 -147.5" stroke="#C39FD1" stroke-width="0.55" stroke-miterlimit="10"/>
<path d="M227.017 725.508L1280.63 -163.546" stroke="#C39FD1" stroke-width="0.55" stroke-miterlimit="10"/>
<path d="M231.248 729.078L1284.87 -159.975" stroke="#C39FD1" stroke-width="0.55" stroke-miterlimit="10"/>
<path d="M248.154 743.334L1301.76 -145.711" stroke="#C39FD1" stroke-width="0.55" stroke-miterlimit="10"/>
<path d="M250.264 745.124L1303.88 -143.93" stroke="#C39FD1" stroke-width="0.55" stroke-miterlimit="10"/>
<path d="M235.469 732.64L1289.09 -156.414" stroke="#C39FD1" stroke-width="0.55" stroke-miterlimit="10"/>
<path d="M239.701 736.202L1293.31 -152.843" stroke="#C39FD1" stroke-width="0.55" stroke-miterlimit="10"/>
<path d="M210.122 711.243L1263.73 -177.802" stroke="#C39FD1" stroke-width="0.55" stroke-miterlimit="10"/>
<path d="M214.343 714.814L1267.96 -174.24" stroke="#C39FD1" stroke-width="0.55" stroke-miterlimit="10"/>
<path d="M193.217 696.987L1246.83 -192.067" stroke="#C39FD1" stroke-width="0.55" stroke-miterlimit="10"/>
<path d="M197.438 700.549L1251.06 -188.505" stroke="#C39FD1" stroke-width="0.55" stroke-miterlimit="10"/>
<path d="M218.575 718.375L1272.18 -170.669" stroke="#C39FD1" stroke-width="0.55" stroke-miterlimit="10"/>
<path d="M222.796 721.946L1276.41 -167.108" stroke="#C39FD1" stroke-width="0.55" stroke-miterlimit="10"/>
<path d="M201.67 704.111L1255.28 -184.934" stroke="#C39FD1" stroke-width="0.55" stroke-miterlimit="10"/>
<path d="M205.891 707.681L1259.51 -181.372" stroke="#C39FD1" stroke-width="0.55" stroke-miterlimit="10"/>
<path d="M229.138 727.288L1282.75 -161.756" stroke="#C39FD1" stroke-width="0.55" stroke-miterlimit="10"/>
<path d="M233.359 730.859L1286.98 -158.195" stroke="#C39FD1" stroke-width="0.55" stroke-miterlimit="10"/>
<path d="M212.233 713.033L1265.85 -176.021" stroke="#C39FD1" stroke-width="0.55" stroke-miterlimit="10"/>
<path d="M216.454 716.594L1270.07 -172.459" stroke="#C39FD1" stroke-width="0.55" stroke-miterlimit="10"/>
<path d="M237.59 734.421L1291.2 -154.624" stroke="#C39FD1" stroke-width="0.55" stroke-miterlimit="10"/>
<path d="M241.811 737.992L1295.43 -151.062" stroke="#C39FD1" stroke-width="0.55" stroke-miterlimit="10"/>
<path d="M220.685 720.156L1274.29 -168.889" stroke="#C39FD1" stroke-width="0.55" stroke-miterlimit="10"/>
<path d="M224.906 723.727L1278.52 -165.327" stroke="#C39FD1" stroke-width="0.55" stroke-miterlimit="10"/>
<path d="M195.328 698.768L1248.95 -190.286" stroke="#C39FD1" stroke-width="0.55" stroke-miterlimit="10"/>
<path d="M199.559 702.33L1253.17 -186.715" stroke="#C39FD1" stroke-width="0.55" stroke-miterlimit="10"/>
<path d="M184.764 689.855L1238.38 -199.199" stroke="#C39FD1" stroke-width="0.55" stroke-miterlimit="10"/>
<path d="M186.875 691.636L1240.49 -197.418" stroke="#C39FD1" stroke-width="0.55" stroke-miterlimit="10"/>
<path d="M203.78 705.9L1257.4 -183.153" stroke="#C39FD1" stroke-width="0.55" stroke-miterlimit="10"/>
<path d="M208.001 709.462L1261.62 -179.592" stroke="#C39FD1" stroke-width="0.55" stroke-miterlimit="10"/>
<path d="M188.985 693.416L1242.6 -195.637" stroke="#C39FD1" stroke-width="0.55" stroke-miterlimit="10"/>
<path d="M191.107 695.197L1244.71 -193.847" stroke="#C39FD1" stroke-width="0.55" stroke-miterlimit="10"/>
<path d="M311.532 796.822L1365.15 -92.2312" stroke="#C39FD1" stroke-width="0.55" stroke-miterlimit="10"/>
<path d="M313.653 798.603L1367.26 -90.4415" stroke="#C39FD1" stroke-width="0.55" stroke-miterlimit="10"/>
<path d="M294.637 782.558L1348.24 -106.487" stroke="#C39FD1" stroke-width="0.55" stroke-miterlimit="10"/>
<path d="M298.858 786.128L1352.48 -102.925" stroke="#C39FD1" stroke-width="0.55" stroke-miterlimit="10"/>
<path d="M315.764 800.384L1369.37 -88.6605" stroke="#C39FD1" stroke-width="0.55" stroke-miterlimit="10"/>
<path d="M317.874 802.174L1371.49 -86.8796" stroke="#C39FD1" stroke-width="0.55" stroke-miterlimit="10"/>
<path d="M303.079 789.69L1356.7 -99.3635" stroke="#C39FD1" stroke-width="0.55" stroke-miterlimit="10"/>
<path d="M307.311 793.261L1360.93 -95.793" stroke="#C39FD1" stroke-width="0.55" stroke-miterlimit="10"/>
<path d="M277.732 768.293L1331.34 -120.752" stroke="#C39FD1" stroke-width="0.55" stroke-miterlimit="10"/>
<path d="M281.953 771.864L1335.57 -117.19" stroke="#C39FD1" stroke-width="0.55" stroke-miterlimit="10"/>
<path d="M260.827 754.037L1314.44 -135.017" stroke="#C39FD1" stroke-width="0.55" stroke-miterlimit="10"/>
<path d="M265.048 757.599L1318.67 -131.455" stroke="#C39FD1" stroke-width="0.55" stroke-miterlimit="10"/>
<path d="M286.185 775.426L1339.79 -113.619" stroke="#C39FD1" stroke-width="0.55" stroke-miterlimit="10"/>
<path d="M290.406 778.996L1344.02 -110.058" stroke="#C39FD1" stroke-width="0.55" stroke-miterlimit="10"/>
<path d="M269.28 761.17L1322.9 -127.884" stroke="#C39FD1" stroke-width="0.55" stroke-miterlimit="10"/>
<path d="M273.501 764.731L1327.12 -124.322" stroke="#C39FD1" stroke-width="0.55" stroke-miterlimit="10"/>
<path d="M296.748 784.339L1350.36 -104.706" stroke="#C39FD1" stroke-width="0.55" stroke-miterlimit="10"/>
<path d="M300.969 787.909L1354.59 -101.144" stroke="#C39FD1" stroke-width="0.55" stroke-miterlimit="10"/>
<path d="M279.843 770.083L1333.46 -118.971" stroke="#C39FD1" stroke-width="0.55" stroke-miterlimit="10"/>
<path d="M284.064 773.644L1337.68 -115.409" stroke="#C39FD1" stroke-width="0.55" stroke-miterlimit="10"/>
<path d="M305.2 791.471L1358.81 -97.5739" stroke="#C39FD1" stroke-width="0.55" stroke-miterlimit="10"/>
<path d="M309.422 795.042L1363.04 -94.0121" stroke="#C39FD1" stroke-width="0.55" stroke-miterlimit="10"/>
<path d="M288.295 777.215L1341.91 -111.839" stroke="#C39FD1" stroke-width="0.55" stroke-miterlimit="10"/>
<path d="M292.516 780.777L1346.13 -108.277" stroke="#C39FD1" stroke-width="0.55" stroke-miterlimit="10"/>
<path d="M262.938 755.818L1316.56 -133.236" stroke="#C39FD1" stroke-width="0.55" stroke-miterlimit="10"/>
<path d="M267.169 759.38L1320.78 -129.665" stroke="#C39FD1" stroke-width="0.55" stroke-miterlimit="10"/>
<path d="M252.374 746.905L1305.99 -142.149" stroke="#C39FD1" stroke-width="0.55" stroke-miterlimit="10"/>
<path d="M254.485 748.686L1308.1 -140.368" stroke="#C39FD1" stroke-width="0.55" stroke-miterlimit="10"/>
<path d="M271.39 762.95L1325.01 -126.103" stroke="#C39FD1" stroke-width="0.55" stroke-miterlimit="10"/>
<path d="M275.622 766.512L1329.23 -122.533" stroke="#C39FD1" stroke-width="0.55" stroke-miterlimit="10"/>
<path d="M256.606 750.466L1310.21 -138.578" stroke="#C39FD1" stroke-width="0.55" stroke-miterlimit="10"/>
<path d="M258.717 752.247L1312.32 -136.797" stroke="#C39FD1" stroke-width="0.55" stroke-miterlimit="10"/>
<path d="M379.153 853.873L1432.76 -35.1721" stroke="#C39FD1" stroke-width="0.55" stroke-miterlimit="10"/>
<path d="M381.263 855.653L1434.87 -33.3912" stroke="#C39FD1" stroke-width="0.55" stroke-miterlimit="10"/>
<path d="M362.247 839.608L1415.85 -49.4369" stroke="#C39FD1" stroke-width="0.55" stroke-miterlimit="10"/>
<path d="M366.469 843.179L1420.09 -45.8751" stroke="#C39FD1" stroke-width="0.55" stroke-miterlimit="10"/>
<path d="M383.374 857.443L1436.99 -31.6104" stroke="#C39FD1" stroke-width="0.55" stroke-miterlimit="10"/>
<path d="M385.484 859.224L1439.1 -29.8296" stroke="#C39FD1" stroke-width="0.55" stroke-miterlimit="10"/>
<path d="M370.7 846.74L1424.31 -42.3046" stroke="#C39FD1" stroke-width="0.55" stroke-miterlimit="10"/>
<path d="M374.921 850.311L1428.54 -38.7428" stroke="#C39FD1" stroke-width="0.55" stroke-miterlimit="10"/>
<path d="M345.342 825.352L1398.96 -63.7017" stroke="#C39FD1" stroke-width="0.55" stroke-miterlimit="10"/>
<path d="M349.563 828.914L1403.18 -60.14" stroke="#C39FD1" stroke-width="0.55" stroke-miterlimit="10"/>
<path d="M328.437 811.087L1382.06 -77.9663" stroke="#C39FD1" stroke-width="0.55" stroke-miterlimit="10"/>
<path d="M332.669 814.649L1386.28 -74.3958" stroke="#C39FD1" stroke-width="0.55" stroke-miterlimit="10"/>
<path d="M353.795 832.475L1407.4 -56.5693" stroke="#C39FD1" stroke-width="0.55" stroke-miterlimit="10"/>
<path d="M358.016 836.046L1411.63 -53.0076" stroke="#C39FD1" stroke-width="0.55" stroke-miterlimit="10"/>
<path d="M336.89 818.22L1390.51 -70.834" stroke="#C39FD1" stroke-width="0.55" stroke-miterlimit="10"/>
<path d="M341.121 821.781L1394.73 -67.2634" stroke="#C39FD1" stroke-width="0.55" stroke-miterlimit="10"/>
<path d="M364.358 841.398L1417.98 -47.656" stroke="#C39FD1" stroke-width="0.55" stroke-miterlimit="10"/>
<path d="M368.579 844.959L1422.2 -44.0942" stroke="#C39FD1" stroke-width="0.55" stroke-miterlimit="10"/>
<path d="M347.453 827.133L1401.07 -61.9209" stroke="#C39FD1" stroke-width="0.55" stroke-miterlimit="10"/>
<path d="M351.684 830.695L1405.29 -58.3501" stroke="#C39FD1" stroke-width="0.55" stroke-miterlimit="10"/>
<path d="M372.811 848.521L1426.42 -40.5237" stroke="#C39FD1" stroke-width="0.55" stroke-miterlimit="10"/>
<path d="M377.032 852.092L1430.65 -36.9619" stroke="#C39FD1" stroke-width="0.55" stroke-miterlimit="10"/>
<path d="M355.905 834.265L1409.52 -54.7885" stroke="#C39FD1" stroke-width="0.55" stroke-miterlimit="10"/>
<path d="M360.137 837.827L1413.74 -51.2178" stroke="#C39FD1" stroke-width="0.55" stroke-miterlimit="10"/>
<path d="M330.548 812.868L1384.17 -76.1855" stroke="#C39FD1" stroke-width="0.55" stroke-miterlimit="10"/>
<path d="M334.779 816.43L1388.39 -72.615" stroke="#C39FD1" stroke-width="0.55" stroke-miterlimit="10"/>
<path d="M319.985 803.955L1373.6 -85.0989" stroke="#C39FD1" stroke-width="0.55" stroke-miterlimit="10"/>
<path d="M322.095 805.736L1375.71 -83.3179" stroke="#C39FD1" stroke-width="0.55" stroke-miterlimit="10"/>
<path d="M339 820L1392.62 -69.0532" stroke="#C39FD1" stroke-width="0.55" stroke-miterlimit="10"/>
<path d="M343.232 823.562L1396.84 -65.4827" stroke="#C39FD1" stroke-width="0.55" stroke-miterlimit="10"/>
<path d="M324.216 807.517L1377.82 -81.5281" stroke="#C39FD1" stroke-width="0.55" stroke-miterlimit="10"/>
<path d="M326.327 809.306L1379.94 -79.7473" stroke="#C39FD1" stroke-width="0.55" stroke-miterlimit="10"/>
<path d="M446.763 910.923L1500.37 21.8781" stroke="#C39FD1" stroke-width="0.55" stroke-miterlimit="10"/>
<path d="M448.873 912.704L1502.48 23.6589" stroke="#C39FD1" stroke-width="0.55" stroke-miterlimit="10"/>
<path d="M429.858 896.658L1483.46 7.61328" stroke="#C39FD1" stroke-width="0.55" stroke-miterlimit="10"/>
<path d="M434.079 900.229L1487.7 11.175" stroke="#C39FD1" stroke-width="0.55" stroke-miterlimit="10"/>
<path d="M450.984 914.493L1504.6 25.4397" stroke="#C39FD1" stroke-width="0.55" stroke-miterlimit="10"/>
<path d="M453.094 916.274L1506.71 27.2207" stroke="#C39FD1" stroke-width="0.55" stroke-miterlimit="10"/>
<path d="M438.31 903.79L1491.92 14.7456" stroke="#C39FD1" stroke-width="0.55" stroke-miterlimit="10"/>
<path d="M442.531 907.361L1496.15 18.3074" stroke="#C39FD1" stroke-width="0.55" stroke-miterlimit="10"/>
<path d="M412.952 882.402L1466.57 -6.65161" stroke="#C39FD1" stroke-width="0.55" stroke-miterlimit="10"/>
<path d="M417.184 885.964L1470.79 -3.08081" stroke="#C39FD1" stroke-width="0.55" stroke-miterlimit="10"/>
<path d="M396.047 868.137L1449.67 -20.9163" stroke="#C39FD1" stroke-width="0.55" stroke-miterlimit="10"/>
<path d="M400.279 871.699L1453.89 -17.3457" stroke="#C39FD1" stroke-width="0.55" stroke-miterlimit="10"/>
<path d="M421.405 889.534L1475.02 0.480835" stroke="#C39FD1" stroke-width="0.55" stroke-miterlimit="10"/>
<path d="M425.626 893.096L1479.24 4.04272" stroke="#C39FD1" stroke-width="0.55" stroke-miterlimit="10"/>
<path d="M404.5 875.27L1458.12 -13.7839" stroke="#C39FD1" stroke-width="0.55" stroke-miterlimit="10"/>
<path d="M408.731 878.832L1462.34 -10.2134" stroke="#C39FD1" stroke-width="0.55" stroke-miterlimit="10"/>
<path d="M431.968 898.448L1485.59 9.39417" stroke="#C39FD1" stroke-width="0.55" stroke-miterlimit="10"/>
<path d="M436.2 902.009L1489.81 12.9647" stroke="#C39FD1" stroke-width="0.55" stroke-miterlimit="10"/>
<path d="M415.063 884.183L1468.68 -4.87073" stroke="#C39FD1" stroke-width="0.55" stroke-miterlimit="10"/>
<path d="M419.294 887.745L1472.9 -1.30005" stroke="#C39FD1" stroke-width="0.55" stroke-miterlimit="10"/>
<path d="M440.421 905.58L1494.04 16.5265" stroke="#C39FD1" stroke-width="0.55" stroke-miterlimit="10"/>
<path d="M444.642 909.142L1498.26 20.0881" stroke="#C39FD1" stroke-width="0.55" stroke-miterlimit="10"/>
<path d="M423.516 891.315L1477.13 2.26184" stroke="#C39FD1" stroke-width="0.55" stroke-miterlimit="10"/>
<path d="M427.747 894.877L1481.35 5.8324" stroke="#C39FD1" stroke-width="0.55" stroke-miterlimit="10"/>
<path d="M398.168 869.918L1451.78 -19.1265" stroke="#C39FD1" stroke-width="0.55" stroke-miterlimit="10"/>
<path d="M402.389 873.489L1456.01 -15.5647" stroke="#C39FD1" stroke-width="0.55" stroke-miterlimit="10"/>
<path d="M387.595 861.005L1441.21 -28.0486" stroke="#C39FD1" stroke-width="0.55" stroke-miterlimit="10"/>
<path d="M389.716 862.786L1443.32 -26.2588" stroke="#C39FD1" stroke-width="0.55" stroke-miterlimit="10"/>
<path d="M406.61 877.051L1460.23 -12.0031" stroke="#C39FD1" stroke-width="0.55" stroke-miterlimit="10"/>
<path d="M410.842 880.613L1464.45 -8.43237" stroke="#C39FD1" stroke-width="0.55" stroke-miterlimit="10"/>
<path d="M391.826 864.567L1445.43 -24.478" stroke="#C39FD1" stroke-width="0.55" stroke-miterlimit="10"/>
<path d="M393.937 866.357L1447.55 -22.697" stroke="#C39FD1" stroke-width="0.55" stroke-miterlimit="10"/>
<path d="M514.373 967.973L1567.98 78.928" stroke="#C39FD1" stroke-width="0.55" stroke-miterlimit="10"/>
<path d="M516.483 969.762L1570.1 80.7087" stroke="#C39FD1" stroke-width="0.55" stroke-miterlimit="10"/>
<path d="M497.468 953.717L1551.09 64.6633" stroke="#C39FD1" stroke-width="0.55" stroke-miterlimit="10"/>
<path d="M501.689 957.279L1555.31 68.2251" stroke="#C39FD1" stroke-width="0.55" stroke-miterlimit="10"/>
<path d="M518.594 971.543L1572.21 82.4897" stroke="#C39FD1" stroke-width="0.55" stroke-miterlimit="10"/>
<path d="M520.704 973.324L1574.32 84.2705" stroke="#C39FD1" stroke-width="0.55" stroke-miterlimit="10"/>
<path d="M505.92 960.849L1559.54 71.7957" stroke="#C39FD1" stroke-width="0.55" stroke-miterlimit="10"/>
<path d="M510.141 964.411L1563.76 75.3574" stroke="#C39FD1" stroke-width="0.55" stroke-miterlimit="10"/>
<path d="M480.562 939.452L1534.18 50.3986" stroke="#C39FD1" stroke-width="0.55" stroke-miterlimit="10"/>
<path d="M484.794 943.014L1538.4 53.9692" stroke="#C39FD1" stroke-width="0.55" stroke-miterlimit="10"/>
<path d="M463.657 925.187L1517.28 36.1338" stroke="#C39FD1" stroke-width="0.55" stroke-miterlimit="10"/>
<path d="M467.889 928.758L1521.51 39.7043" stroke="#C39FD1" stroke-width="0.55" stroke-miterlimit="10"/>
<path d="M489.015 946.585L1542.63 57.5309" stroke="#C39FD1" stroke-width="0.55" stroke-miterlimit="10"/>
<path d="M493.247 950.146L1546.85 61.1016" stroke="#C39FD1" stroke-width="0.55" stroke-miterlimit="10"/>
<path d="M472.11 932.32L1525.73 43.2661" stroke="#C39FD1" stroke-width="0.55" stroke-miterlimit="10"/>
<path d="M476.342 935.882L1529.95 46.8369" stroke="#C39FD1" stroke-width="0.55" stroke-miterlimit="10"/>
<path d="M499.578 955.498L1553.2 66.4441" stroke="#C39FD1" stroke-width="0.55" stroke-miterlimit="10"/>
<path d="M503.81 959.06L1557.42 70.0149" stroke="#C39FD1" stroke-width="0.55" stroke-miterlimit="10"/>
<path d="M482.673 941.233L1536.29 52.1794" stroke="#C39FD1" stroke-width="0.55" stroke-miterlimit="10"/>
<path d="M486.905 944.804L1540.52 55.75" stroke="#C39FD1" stroke-width="0.55" stroke-miterlimit="10"/>
<path d="M508.031 962.63L1561.65 73.5767" stroke="#C39FD1" stroke-width="0.55" stroke-miterlimit="10"/>
<path d="M512.262 966.192L1565.87 77.1471" stroke="#C39FD1" stroke-width="0.55" stroke-miterlimit="10"/>
<path d="M491.126 948.365L1544.74 59.3118" stroke="#C39FD1" stroke-width="0.55" stroke-miterlimit="10"/>
<path d="M495.357 951.927L1548.96 62.8824" stroke="#C39FD1" stroke-width="0.55" stroke-miterlimit="10"/>
<path d="M465.778 926.968L1519.39 37.9236" stroke="#C39FD1" stroke-width="0.55" stroke-miterlimit="10"/>
<path d="M469.999 930.539L1523.62 41.4854" stroke="#C39FD1" stroke-width="0.55" stroke-miterlimit="10"/>
<path d="M455.215 918.055L1508.82 29.0103" stroke="#C39FD1" stroke-width="0.55" stroke-miterlimit="10"/>
<path d="M457.326 919.836L1510.93 30.7911" stroke="#C39FD1" stroke-width="0.55" stroke-miterlimit="10"/>
<path d="M474.231 934.101L1527.84 45.0559" stroke="#C39FD1" stroke-width="0.55" stroke-miterlimit="10"/>
<path d="M478.452 937.671L1532.07 48.6177" stroke="#C39FD1" stroke-width="0.55" stroke-miterlimit="10"/>
<path d="M459.436 921.626L1513.05 32.572" stroke="#C39FD1" stroke-width="0.55" stroke-miterlimit="10"/>
<path d="M461.547 923.406L1515.16 34.3528" stroke="#C39FD1" stroke-width="0.55" stroke-miterlimit="10"/>
</g>
</svg>
